<?xml version="1.0" encoding="utf-8"?>
<!-- Generator: Adobe Illustrator 16.0.0, SVG Export Plug-In . SVG Version: 6.00 Build 0)  -->
<!DOCTYPE svg PUBLIC "-//W3C//DTD SVG 1.1//EN" "http://www.w3.org/Graphics/SVG/1.1/DTD/svg11.dtd">
<svg version="1.1" id="Layer_1" xmlns="http://www.w3.org/2000/svg" xmlns:xlink="http://www.w3.org/1999/xlink" x="0px" y="0px"
	 width="1000px" height="800px" viewBox="0 0 1000 800" enable-background="new 0 0 1000 800" xml:space="preserve">
<g>
	<path fill="#00A1E0" d="M150.271,392.015c0,8.16-6.612,14.772-14.773,14.772c-8.152,0-14.765-6.612-14.765-14.772
		s6.613-14.773,14.765-14.773C143.658,377.241,150.271,383.854,150.271,392.015z"/>
	<path fill="#D60C11" d="M117.848,419.691v33.814c-27.982-27.983-48.742,1.398-48.742,1.398v-35.213
		C98.026,406.631,117.848,419.691,117.848,419.691z"/>
	<path fill="#018ED6" d="M148.176,450.262c0.008,2.657,0.039,5.331,0.039,8.004c0.015,7.066-0.133,14.14-1.188,21.12
		c-3.986,26.341-28.576,45.226-55.066,44.326c-26.481-0.906-48.547-19.876-53.026-45.843c-0.219-1.203-0.383-2.416-0.516-3.65
		c-2.024-18.979-0.601-38.949-0.554-58.021c0.023-12.404-0.095-24.808-0.125-37.205c25.771,0.117,28.217,22.504,28.217,22.504
		c0.008,4.174,0.055,8.354,0.055,12.529c-0.024,15.914,0.288,31.852-0.173,47.758c-0.171,5.956,0.54,12.732,2.861,18.627
		c1.931,4.908,4.979,9.199,9.56,11.903c8.121,4.8,18.892,4.612,27.24,0.313c7.707-3.97,12.178-10.903,14.39-18.735
		c1.454-5.105,1.947-10.591,1.751-15.899c-0.547-15.18,0-30.452,0.063-45.647c23.903,2.915,26.552,20.252,26.552,20.252
		C148.254,438.482,148.16,444.376,148.176,450.262z"/>
	<path fill="#018ED6" d="M148.25,489.349v34.514h-26.588v-3.728c0,0,17.724-10.261,25.032-30.786H148.25z"/>
	<path fill="#00A1E0" d="M68.699,480.41c-9.02-0.211-18.916-1.008-29.765-2.541c-0.219-1.203-0.383-2.416-0.516-3.65
		c-2.024-18.979-0.601-38.949-0.554-58.021c0.023-12.404-0.095-24.808-0.125-37.205c25.771,0.117,28.217,22.504,28.217,22.504
		c0.008,4.174,0.055,8.354,0.055,12.529c-0.024,15.914,0.288,31.852-0.173,47.758C65.667,467.739,66.378,474.516,68.699,480.41z"/>
	<path fill="#00A1E0" d="M148.254,432.597c0,5.886-0.094,11.779-0.078,17.665c0.008,2.657,0.039,5.331,0.039,8.004
		c-5.222,4.729-14.171,10.967-28.327,15.626c1.454-5.105,1.947-10.591,1.751-15.899c-0.547-15.18,0-30.452,0.063-45.647
		C145.604,415.26,148.254,432.597,148.254,432.597z"/>
</g>
<g display="none">
	<linearGradient id="SVGID_1_" gradientUnits="userSpaceOnUse" x1="285.1689" y1="273.7339" x2="287.169" y2="213.734">
		<stop  offset="0.15" style="stop-color:#00A1E0"/>
		<stop  offset="0.855" style="stop-color:#018ED6"/>
	</linearGradient>
	<path display="inline" fill="url(#SVGID_1_)" d="M271.65,263.03c-0.548-0.547-0.821-1.222-0.821-2.025v-37.06
		c0-0.839,0.273-1.523,0.821-2.053c0.547-0.529,1.222-0.794,2.025-0.794h13.083c2.444,0,4.616,0.484,6.514,1.45
		c1.897,0.968,3.385,2.318,4.462,4.051c1.076,1.734,1.614,3.695,1.614,5.885c0,1.789-0.483,3.395-1.45,4.817
		c-0.968,1.424-2.291,2.573-3.969,3.449c2.481,0.584,4.434,1.752,5.857,3.503c1.423,1.752,2.135,3.979,2.135,6.679
		c0,2.482-0.594,4.708-1.779,6.679c-1.187,1.971-2.847,3.503-4.981,4.598s-4.553,1.643-7.253,1.643h-14.232
		C272.872,263.852,272.197,263.578,271.65,263.03z M286.759,238.671c2.152,0,3.877-0.529,5.173-1.588
		c1.295-1.058,1.943-2.591,1.943-4.599c0-2.006-0.648-3.53-1.943-4.57c-1.296-1.04-3.021-1.561-5.173-1.561h-10.237v12.317H286.759z
		 M287.908,258.597c2.554,0,4.616-0.666,6.186-1.998s2.354-3.221,2.354-5.666c0-2.263-0.776-3.996-2.327-5.2
		c-1.552-1.204-3.622-1.807-6.213-1.807h-11.387v14.671H287.908z"/>
	<linearGradient id="SVGID_2_" gradientUnits="userSpaceOnUse" x1="318.6748" y1="274.8516" x2="320.6749" y2="214.851">
		<stop  offset="0.15" style="stop-color:#00A1E0"/>
		<stop  offset="0.855" style="stop-color:#018ED6"/>
	</linearGradient>
	<path display="inline" fill="url(#SVGID_2_)" d="M334.438,236.316c0,0.365-0.109,0.804-0.328,1.314l-16.751,37.662
		c-0.438,1.13-1.149,1.696-2.135,1.696c-0.365,0-0.803-0.109-1.313-0.328c-1.095-0.475-1.643-1.187-1.643-2.135
		c0-0.438,0.109-0.876,0.328-1.314l5.475-12.316l-12.316-23.375c-0.184-0.328-0.274-0.711-0.274-1.149
		c0-0.474,0.146-0.911,0.438-1.313c0.291-0.401,0.675-0.712,1.149-0.931c0.328-0.146,0.692-0.219,1.095-0.219
		c1.021,0,1.788,0.512,2.299,1.532l10.018,19.926l8.813-19.871c0.475-1.058,1.186-1.587,2.135-1.587
		c0.475,0,0.912,0.092,1.314,0.273C333.872,234.62,334.438,235.331,334.438,236.316z"/>
	<linearGradient id="SVGID_3_" gradientUnits="userSpaceOnUse" x1="344.1221" y1="275.6992" x2="346.1221" y2="215.7001">
		<stop  offset="0.15" style="stop-color:#00A1E0"/>
		<stop  offset="0.855" style="stop-color:#018ED6"/>
	</linearGradient>
	<path display="inline" fill="url(#SVGID_3_)" d="M353.788,259.144c0.456,0.512,0.685,1.169,0.685,1.971
		c0,0.804-0.301,1.46-0.903,1.971c-0.603,0.512-1.378,0.767-2.326,0.767h-0.985c-1.789,0-3.422-0.465-4.899-1.396
		c-1.479-0.931-2.638-2.198-3.477-3.805c-0.84-1.605-1.259-3.412-1.259-5.42v-13.521h-2.519c-0.766,0-1.387-0.22-1.86-0.657
		c-0.476-0.438-0.712-0.985-0.712-1.643c0-0.729,0.236-1.313,0.712-1.751c0.474-0.438,1.095-0.657,1.86-0.657h2.519v-7.883
		c0-0.803,0.255-1.459,0.767-1.971c0.511-0.511,1.167-0.767,1.971-0.767c0.802,0,1.459,0.256,1.971,0.767
		c0.511,0.512,0.766,1.168,0.766,1.971v7.883h4.653c0.767,0,1.387,0.219,1.861,0.657c0.474,0.438,0.712,1.021,0.712,1.751
		c0,0.657-0.238,1.205-0.712,1.643c-0.475,0.438-1.095,0.657-1.861,0.657h-4.653v13.521c0,1.46,0.401,2.683,1.205,3.668
		c0.802,0.985,1.787,1.478,2.956,1.478h1.861C352.775,258.377,353.332,258.633,353.788,259.144z"/>
	<linearGradient id="SVGID_4_" gradientUnits="userSpaceOnUse" x1="373.0488" y1="276.6641" x2="375.0489" y2="216.6631">
		<stop  offset="0.15" style="stop-color:#00A1E0"/>
		<stop  offset="0.855" style="stop-color:#018ED6"/>
	</linearGradient>
	<path display="inline" fill="url(#SVGID_4_)" d="M387.48,250.139c-0.475,0.457-1.077,0.685-1.807,0.685h-20.802
		c0.401,2.555,1.561,4.617,3.477,6.186c1.916,1.569,4.26,2.354,7.034,2.354c1.095,0,2.234-0.199,3.421-0.602
		c1.186-0.401,2.162-0.894,2.929-1.479c0.511-0.4,1.113-0.602,1.807-0.602s1.24,0.183,1.643,0.547
		c0.656,0.548,0.985,1.169,0.985,1.861c0,0.657-0.293,1.204-0.876,1.643c-1.241,0.985-2.783,1.788-4.626,2.408
		c-1.843,0.621-3.604,0.931-5.282,0.931c-2.993,0-5.675-0.647-8.047-1.943c-2.373-1.295-4.225-3.093-5.557-5.392
		s-1.998-4.908-1.998-7.828c0-2.919,0.63-5.537,1.889-7.855c1.259-2.317,3.011-4.123,5.255-5.419
		c2.245-1.295,4.79-1.943,7.637-1.943c2.81,0,5.236,0.621,7.28,1.861s3.613,2.975,4.708,5.2c1.095,2.227,1.643,4.781,1.643,7.663
		C388.192,249.108,387.954,249.683,387.48,250.139z M368.075,240.587c-1.661,1.46-2.71,3.412-3.148,5.856h18.229
		c-0.329-2.444-1.241-4.396-2.737-5.856c-1.497-1.46-3.449-2.19-5.857-2.19C371.897,238.396,369.735,239.127,368.075,240.587z"/>
	<linearGradient id="SVGID_5_" gradientUnits="userSpaceOnUse" x1="404.9531" y1="277.7271" x2="406.9532" y2="217.7261">
		<stop  offset="0.15" style="stop-color:#00A1E0"/>
		<stop  offset="0.855" style="stop-color:#018ED6"/>
	</linearGradient>
	<path display="inline" fill="url(#SVGID_5_)" d="M399.194,262.921c-2.189-0.767-3.905-1.77-5.146-3.011
		c-0.475-0.474-0.712-1.04-0.712-1.697c0-0.876,0.364-1.587,1.095-2.135c0.693-0.511,1.332-0.767,1.916-0.767
		c0.729,0,1.424,0.329,2.08,0.985c0.693,0.767,1.733,1.433,3.12,1.998c1.387,0.566,2.865,0.849,4.435,0.849
		c2.08,0,3.695-0.346,4.845-1.04c1.149-0.692,1.725-1.623,1.725-2.792c0-1.13-0.566-2.07-1.697-2.818
		c-1.132-0.748-3.048-1.378-5.748-1.889c-7.007-1.35-10.511-4.233-10.511-8.649c0-1.788,0.529-3.303,1.588-4.544
		c1.059-1.24,2.444-2.171,4.16-2.791c1.715-0.62,3.54-0.931,5.475-0.931c2.372,0,4.497,0.383,6.377,1.149
		c1.879,0.767,3.367,1.825,4.462,3.175c0.474,0.584,0.711,1.168,0.711,1.752c0,0.621-0.311,1.187-0.931,1.696
		c-0.401,0.293-0.912,0.438-1.532,0.438c-0.949,0-1.807-0.347-2.573-1.04c-0.912-0.839-1.88-1.432-2.901-1.779
		c-1.021-0.347-2.263-0.52-3.722-0.52c-1.68,0-3.058,0.282-4.133,0.848c-1.077,0.566-1.615,1.36-1.615,2.382
		c0,0.73,0.182,1.341,0.547,1.834c0.365,0.492,1.059,0.949,2.081,1.368c1.021,0.42,2.499,0.83,4.434,1.231
		c3.978,0.804,6.797,1.916,8.458,3.34c1.66,1.423,2.49,3.267,2.49,5.528c0,1.679-0.457,3.202-1.368,4.571
		c-0.913,1.368-2.254,2.445-4.023,3.229c-1.771,0.785-3.896,1.177-6.378,1.177C403.719,264.07,401.384,263.688,399.194,262.921z"/>
	<linearGradient id="SVGID_6_" gradientUnits="userSpaceOnUse" x1="443.248" y1="279.0034" x2="445.2481" y2="219.0027">
		<stop  offset="0.15" style="stop-color:#00A1E0"/>
		<stop  offset="0.855" style="stop-color:#018ED6"/>
	</linearGradient>
	<path display="inline" fill="url(#SVGID_6_)" d="M442.44,263.03c-0.548-0.547-0.821-1.222-0.821-2.025v-37.06
		c0-0.839,0.273-1.523,0.821-2.053c0.547-0.529,1.222-0.794,2.025-0.794c0.839,0,1.523,0.265,2.053,0.794
		c0.528,0.529,0.793,1.214,0.793,2.053v37.06c0,0.804-0.265,1.479-0.793,2.025c-0.529,0.548-1.214,0.821-2.053,0.821
		C443.662,263.852,442.987,263.578,442.44,263.03z"/>
	<linearGradient id="SVGID_7_" gradientUnits="userSpaceOnUse" x1="470.7197" y1="279.9185" x2="472.7198" y2="219.9195">
		<stop  offset="0.15" style="stop-color:#00A1E0"/>
		<stop  offset="0.855" style="stop-color:#018ED6"/>
	</linearGradient>
	<path display="inline" fill="url(#SVGID_7_)" d="M479.39,235.276c2.007,1.095,3.576,2.692,4.708,4.79
		c1.131,2.099,1.696,4.626,1.696,7.582v13.466c0,0.804-0.265,1.47-0.793,1.998c-0.529,0.529-1.196,0.794-1.998,0.794
		c-0.804,0-1.47-0.265-1.998-0.794c-0.529-0.528-0.794-1.194-0.794-1.998v-13.466c0-2.956-0.794-5.191-2.382-6.706
		c-1.587-1.514-3.694-2.271-6.322-2.271c-1.532,0-2.929,0.311-4.188,0.931s-2.244,1.46-2.956,2.518
		c-0.712,1.059-1.067,2.244-1.067,3.559v15.437c0,0.804-0.256,1.47-0.767,1.998c-0.512,0.529-1.187,0.794-2.025,0.794
		c-0.803,0-1.47-0.265-1.998-0.794c-0.529-0.528-0.794-1.194-0.794-1.998V236.7c0-0.84,0.265-1.515,0.794-2.025
		c0.528-0.511,1.195-0.767,1.998-0.767c0.839,0,1.514,0.256,2.025,0.767c0.511,0.511,0.767,1.186,0.767,2.025v0.602
		c1.167-1.167,2.554-2.07,4.16-2.709c1.605-0.639,3.32-0.958,5.146-0.958C475.12,233.635,477.382,234.182,479.39,235.276z"/>
	<linearGradient id="SVGID_8_" gradientUnits="userSpaceOnUse" x1="499.6289" y1="280.8828" x2="501.6289" y2="220.8837">
		<stop  offset="0.15" style="stop-color:#00A1E0"/>
		<stop  offset="0.855" style="stop-color:#018ED6"/>
	</linearGradient>
	<path display="inline" fill="url(#SVGID_8_)" d="M509.47,259.144c0.456,0.512,0.684,1.169,0.684,1.971
		c0,0.804-0.301,1.46-0.902,1.971c-0.603,0.512-1.379,0.767-2.327,0.767h-0.985c-1.788,0-3.421-0.465-4.899-1.396
		c-1.478-0.931-2.637-2.198-3.476-3.805c-0.84-1.605-1.26-3.412-1.26-5.42v-13.521h-2.518c-0.767,0-1.388-0.22-1.861-0.657
		c-0.475-0.438-0.712-0.985-0.712-1.643c0-0.729,0.237-1.313,0.712-1.751c0.474-0.438,1.095-0.657,1.861-0.657h2.518v-7.883
		c0-0.803,0.255-1.459,0.767-1.971c0.511-0.511,1.168-0.767,1.971-0.767s1.459,0.256,1.971,0.767
		c0.511,0.512,0.767,1.168,0.767,1.971v7.883h4.653c0.766,0,1.386,0.219,1.861,0.657c0.474,0.438,0.711,1.021,0.711,1.751
		c0,0.657-0.237,1.205-0.711,1.643c-0.476,0.438-1.096,0.657-1.861,0.657h-4.653v13.521c0,1.46,0.401,2.683,1.204,3.668
		s1.788,1.478,2.956,1.478h1.861C508.457,258.377,509.013,258.633,509.47,259.144z"/>
	<linearGradient id="SVGID_9_" gradientUnits="userSpaceOnUse" x1="528.5586" y1="281.8481" x2="530.5587" y2="221.8471">
		<stop  offset="0.15" style="stop-color:#00A1E0"/>
		<stop  offset="0.855" style="stop-color:#018ED6"/>
	</linearGradient>
	<path display="inline" fill="url(#SVGID_9_)" d="M543.162,250.139c-0.475,0.457-1.077,0.685-1.807,0.685h-20.802
		c0.401,2.555,1.561,4.617,3.477,6.186c1.916,1.569,4.26,2.354,7.034,2.354c1.095,0,2.234-0.199,3.421-0.602
		c1.186-0.401,2.162-0.894,2.929-1.479c0.511-0.4,1.113-0.602,1.807-0.602s1.24,0.183,1.643,0.547
		c0.656,0.548,0.985,1.169,0.985,1.861c0,0.657-0.293,1.204-0.876,1.643c-1.241,0.985-2.783,1.788-4.626,2.408
		c-1.843,0.621-3.604,0.931-5.282,0.931c-2.993,0-5.675-0.647-8.047-1.943c-2.373-1.295-4.225-3.093-5.557-5.392
		s-1.998-4.908-1.998-7.828c0-2.919,0.63-5.537,1.889-7.855c1.259-2.317,3.011-4.123,5.255-5.419
		c2.245-1.295,4.79-1.943,7.637-1.943c2.81,0,5.236,0.621,7.28,1.861s3.613,2.975,4.708,5.2c1.095,2.227,1.643,4.781,1.643,7.663
		C543.874,249.108,543.636,249.683,543.162,250.139z M523.757,240.587c-1.661,1.46-2.71,3.412-3.148,5.856h18.229
		c-0.329-2.444-1.241-4.396-2.737-5.856c-1.497-1.46-3.449-2.19-5.857-2.19C527.579,238.396,525.417,239.127,523.757,240.587z"/>
	<linearGradient id="SVGID_10_" gradientUnits="userSpaceOnUse" x1="554.5752" y1="282.7144" x2="556.5753" y2="222.7135">
		<stop  offset="0.15" style="stop-color:#00A1E0"/>
		<stop  offset="0.855" style="stop-color:#018ED6"/>
	</linearGradient>
	<path display="inline" fill="url(#SVGID_10_)" d="M553.863,262.565c-1.259-0.857-2.235-2.062-2.929-3.613
		c-0.693-1.551-1.04-3.293-1.04-5.228v-29.889c0-0.803,0.255-1.46,0.767-1.971c0.511-0.511,1.167-0.767,1.971-0.767
		c0.802,0,1.459,0.256,1.971,0.767c0.511,0.511,0.767,1.168,0.767,1.971v29.889c0,1.351,0.255,2.463,0.766,3.339
		s1.168,1.313,1.971,1.313h1.369c0.729,0,1.322,0.256,1.779,0.767c0.455,0.512,0.684,1.169,0.684,1.971
		c0,0.804-0.347,1.46-1.04,1.971c-0.693,0.512-1.587,0.767-2.683,0.767h-0.109C556.536,263.852,555.122,263.423,553.863,262.565z"/>
	<linearGradient id="SVGID_11_" gradientUnits="userSpaceOnUse" x1="570.9785" y1="283.2612" x2="572.9786" y2="223.2611">
		<stop  offset="0.15" style="stop-color:#00A1E0"/>
		<stop  offset="0.855" style="stop-color:#018ED6"/>
	</linearGradient>
	<path display="inline" fill="url(#SVGID_11_)" d="M570.285,262.565c-1.26-0.857-2.236-2.062-2.929-3.613
		c-0.694-1.551-1.04-3.293-1.04-5.228v-29.889c0-0.803,0.255-1.46,0.766-1.971s1.168-0.767,1.971-0.767s1.46,0.256,1.971,0.767
		s0.767,1.168,0.767,1.971v29.889c0,1.351,0.255,2.463,0.767,3.339c0.511,0.876,1.167,1.313,1.971,1.313h1.368
		c0.729,0,1.322,0.256,1.779,0.767c0.456,0.512,0.685,1.169,0.685,1.971c0,0.804-0.348,1.46-1.04,1.971
		c-0.694,0.512-1.588,0.767-2.683,0.767h-0.109C572.958,263.852,571.544,263.423,570.285,262.565z"/>
	<linearGradient id="SVGID_12_" gradientUnits="userSpaceOnUse" x1="585.4121" y1="283.7417" x2="587.4121" y2="223.7424">
		<stop  offset="0.15" style="stop-color:#00A1E0"/>
		<stop  offset="0.855" style="stop-color:#018ED6"/>
	</linearGradient>
	<path display="inline" fill="url(#SVGID_12_)" d="M584.627,227.969c-0.712-0.712-1.068-1.561-1.068-2.546s0.356-1.834,1.068-2.545
		c0.711-0.712,1.56-1.067,2.545-1.067s1.834,0.355,2.546,1.067c0.711,0.711,1.067,1.56,1.067,2.545s-0.356,1.834-1.067,2.546
		c-0.712,0.712-1.561,1.067-2.546,1.067S585.338,228.681,584.627,227.969z M585.174,263.058c-0.529-0.528-0.794-1.194-0.794-1.998
		V236.7c0-0.84,0.265-1.515,0.794-2.025c0.528-0.511,1.195-0.767,1.998-0.767c0.839,0,1.514,0.256,2.025,0.767
		c0.511,0.511,0.767,1.186,0.767,2.025v24.359c0,0.804-0.256,1.47-0.767,1.998c-0.512,0.529-1.187,0.794-2.025,0.794
		C586.369,263.852,585.702,263.587,585.174,263.058z"/>
	<linearGradient id="SVGID_13_" gradientUnits="userSpaceOnUse" x1="612.918" y1="284.6592" x2="614.918" y2="224.6586">
		<stop  offset="0.15" style="stop-color:#00A1E0"/>
		<stop  offset="0.855" style="stop-color:#018ED6"/>
	</linearGradient>
	<path display="inline" fill="url(#SVGID_13_)" d="M621.686,235.633c2.28,1.296,4.069,3.093,5.365,5.392
		c1.295,2.299,1.943,4.927,1.943,7.883v11.824c0,2.883-0.64,5.51-1.916,7.883c-1.278,2.372-3.075,4.242-5.393,5.61
		c-2.317,1.369-4.936,2.054-7.855,2.054c-2.627,0-5.072-0.521-7.335-1.561c-2.264-1.04-4.16-2.527-5.693-4.462
		c-0.402-0.511-0.602-1.021-0.602-1.532c0-0.767,0.383-1.424,1.149-1.971c0.511-0.328,1.021-0.493,1.532-0.493
		c0.912,0,1.66,0.384,2.245,1.15c0.984,1.276,2.225,2.253,3.722,2.929c1.496,0.675,3.193,1.013,5.091,1.013
		c1.788,0,3.412-0.43,4.872-1.287s2.628-2.117,3.504-3.777s1.313-3.64,1.313-5.939v-2.682c-1.132,2.007-2.628,3.577-4.488,4.708
		c-1.861,1.131-3.961,1.696-6.296,1.696c-2.701,0-5.118-0.647-7.253-1.943c-2.135-1.295-3.796-3.093-4.981-5.392
		c-1.187-2.299-1.779-4.908-1.779-7.828c0-2.956,0.639-5.584,1.916-7.883s3.065-4.096,5.364-5.392
		c2.3-1.295,4.908-1.943,7.828-1.943C616.822,233.689,619.404,234.338,621.686,235.633z M618.948,257.83
		c1.479-0.876,2.628-2.089,3.449-3.641c0.821-1.551,1.231-3.312,1.231-5.282s-0.41-3.74-1.231-5.31s-1.971-2.792-3.449-3.668
		c-1.478-0.876-3.147-1.313-5.009-1.313c-1.86,0-3.53,0.438-5.009,1.313c-1.478,0.876-2.637,2.099-3.476,3.668
		c-0.84,1.569-1.259,3.339-1.259,5.31s0.419,3.731,1.259,5.282c0.839,1.552,1.998,2.765,3.476,3.641
		c1.479,0.876,3.148,1.313,5.009,1.313C615.801,259.144,617.471,258.706,618.948,257.83z"/>
	<linearGradient id="SVGID_14_" gradientUnits="userSpaceOnUse" x1="648.7422" y1="285.854" x2="650.7422" y2="225.853">
		<stop  offset="0.15" style="stop-color:#00A1E0"/>
		<stop  offset="0.855" style="stop-color:#018ED6"/>
	</linearGradient>
	<path display="inline" fill="url(#SVGID_14_)" d="M663.48,250.139c-0.476,0.457-1.077,0.685-1.807,0.685h-20.802
		c0.401,2.555,1.56,4.617,3.476,6.186c1.916,1.569,4.261,2.354,7.034,2.354c1.095,0,2.235-0.199,3.422-0.602
		c1.186-0.401,2.162-0.894,2.929-1.479c0.511-0.4,1.112-0.602,1.807-0.602c0.692,0,1.24,0.183,1.642,0.547
		c0.657,0.548,0.985,1.169,0.985,1.861c0,0.657-0.292,1.204-0.876,1.643c-1.241,0.985-2.783,1.788-4.625,2.408
		c-1.844,0.621-3.604,0.931-5.283,0.931c-2.992,0-5.675-0.647-8.047-1.943c-2.372-1.295-4.225-3.093-5.556-5.392
		c-1.333-2.299-1.998-4.908-1.998-7.828c0-2.919,0.629-5.537,1.889-7.855c1.259-2.317,3.011-4.123,5.255-5.419
		c2.244-1.295,4.79-1.943,7.637-1.943c2.81,0,5.236,0.621,7.28,1.861c2.043,1.24,3.613,2.975,4.708,5.2
		c1.095,2.227,1.642,4.781,1.642,7.663C664.191,249.108,663.954,249.683,663.48,250.139z M644.074,240.587
		c-1.661,1.46-2.71,3.412-3.147,5.856h18.229c-0.328-2.444-1.241-4.396-2.737-5.856s-3.448-2.19-5.856-2.19
		C647.896,238.396,645.734,239.127,644.074,240.587z"/>
	<linearGradient id="SVGID_15_" gradientUnits="userSpaceOnUse" x1="684.0781" y1="287.0303" x2="686.0781" y2="227.0313">
		<stop  offset="0.15" style="stop-color:#00A1E0"/>
		<stop  offset="0.855" style="stop-color:#018ED6"/>
	</linearGradient>
	<path display="inline" fill="url(#SVGID_15_)" d="M692.985,235.276c2.006,1.095,3.576,2.692,4.707,4.79
		c1.131,2.099,1.697,4.626,1.697,7.582v13.466c0,0.804-0.266,1.47-0.794,1.998c-0.529,0.529-1.195,0.794-1.998,0.794
		s-1.47-0.265-1.998-0.794c-0.529-0.528-0.794-1.194-0.794-1.998v-13.466c0-2.956-0.793-5.191-2.381-6.706
		c-1.588-1.514-3.695-2.271-6.322-2.271c-1.533,0-2.929,0.311-4.188,0.931c-1.259,0.62-2.244,1.46-2.956,2.518
		c-0.711,1.059-1.067,2.244-1.067,3.559v15.437c0,0.804-0.256,1.47-0.766,1.998c-0.512,0.529-1.187,0.794-2.025,0.794
		c-0.804,0-1.47-0.265-1.998-0.794c-0.53-0.528-0.794-1.194-0.794-1.998V236.7c0-0.84,0.264-1.515,0.794-2.025
		c0.528-0.511,1.194-0.767,1.998-0.767c0.839,0,1.514,0.256,2.025,0.767c0.51,0.511,0.766,1.186,0.766,2.025v0.602
		c1.168-1.167,2.555-2.07,4.161-2.709c1.605-0.639,3.32-0.958,5.146-0.958C688.715,233.635,690.978,234.182,692.985,235.276z"/>
	<linearGradient id="SVGID_16_" gradientUnits="userSpaceOnUse" x1="718.7695" y1="288.188" x2="720.7696" y2="228.187">
		<stop  offset="0.15" style="stop-color:#00A1E0"/>
		<stop  offset="0.855" style="stop-color:#018ED6"/>
	</linearGradient>
	<path display="inline" fill="url(#SVGID_16_)" d="M714.443,262.1c-2.3-1.313-4.098-3.129-5.393-5.446
		c-1.296-2.317-1.943-4.899-1.943-7.746c0-2.919,0.63-5.537,1.889-7.855c1.259-2.317,3.02-4.123,5.282-5.419
		c2.263-1.295,4.817-1.943,7.664-1.943c4.306,0,7.884,1.642,10.729,4.927c0.365,0.401,0.548,0.875,0.548,1.423
		c0,0.803-0.402,1.479-1.204,2.025c-0.365,0.256-0.785,0.383-1.26,0.383c-0.84,0-1.551-0.328-2.135-0.985
		c-0.913-0.985-1.907-1.705-2.983-2.162c-1.077-0.456-2.309-0.684-3.695-0.684c-2.811,0-5.091,0.939-6.843,2.818
		c-1.752,1.881-2.627,4.371-2.627,7.473c0,1.971,0.41,3.731,1.231,5.282c0.821,1.552,1.971,2.765,3.448,3.641
		c1.479,0.876,3.166,1.313,5.063,1.313c2.481,0,4.489-0.638,6.021-1.916c0.693-0.511,1.369-0.766,2.026-0.766
		c0.511,0,0.985,0.164,1.423,0.492c0.693,0.584,1.04,1.241,1.04,1.971c0,0.548-0.219,1.04-0.656,1.479
		c-2.628,2.445-5.913,3.667-9.854,3.667C719.333,264.07,716.742,263.414,714.443,262.1z"/>
	<linearGradient id="SVGID_17_" gradientUnits="userSpaceOnUse" x1="752.8535" y1="289.3242" x2="754.8536" y2="229.3232">
		<stop  offset="0.15" style="stop-color:#00A1E0"/>
		<stop  offset="0.855" style="stop-color:#018ED6"/>
	</linearGradient>
	<path display="inline" fill="url(#SVGID_17_)" d="M767.707,250.139c-0.475,0.457-1.077,0.685-1.807,0.685h-20.802
		c0.401,2.555,1.561,4.617,3.477,6.186c1.915,1.569,4.26,2.354,7.034,2.354c1.095,0,2.234-0.199,3.421-0.602
		c1.186-0.401,2.162-0.894,2.929-1.479c0.511-0.4,1.113-0.602,1.807-0.602c0.692,0,1.24,0.183,1.642,0.547
		c0.657,0.548,0.985,1.169,0.985,1.861c0,0.657-0.292,1.204-0.875,1.643c-1.241,0.985-2.783,1.788-4.626,2.408
		c-1.844,0.621-3.604,0.931-5.282,0.931c-2.993,0-5.676-0.647-8.047-1.943c-2.373-1.295-4.225-3.093-5.557-5.392
		s-1.998-4.908-1.998-7.828c0-2.919,0.629-5.537,1.889-7.855c1.259-2.317,3.011-4.123,5.255-5.419
		c2.244-1.295,4.79-1.943,7.637-1.943c2.81,0,5.236,0.621,7.28,1.861s3.613,2.975,4.708,5.2c1.095,2.227,1.643,4.781,1.643,7.663
		C768.419,249.108,768.181,249.683,767.707,250.139z M748.301,240.587c-1.661,1.46-2.709,3.412-3.147,5.856h18.229
		c-0.328-2.444-1.24-4.396-2.736-5.856c-1.497-1.46-3.449-2.19-5.857-2.19C752.123,238.396,749.961,239.127,748.301,240.587z"/>
	<linearGradient id="SVGID_18_" gradientUnits="userSpaceOnUse" x1="806.4834" y1="291.1108" x2="808.4835" y2="231.1109">
		<stop  offset="0.15" style="stop-color:#00A1E0"/>
		<stop  offset="0.855" style="stop-color:#018ED6"/>
	</linearGradient>
	<path display="inline" fill="url(#SVGID_18_)" d="M824.773,242.475c0.529,0.53,0.794,1.214,0.794,2.054v13.083
		c0,0.876-0.292,1.552-0.876,2.025c-3.832,3.175-8.303,4.763-13.411,4.763c-3.905,0-7.473-0.967-10.702-2.901
		s-5.775-4.58-7.637-7.938s-2.791-7.062-2.791-11.113c0-4.014,0.93-7.69,2.791-11.03c1.861-3.339,4.407-5.984,7.637-7.938
		c3.229-1.951,6.797-2.929,10.702-2.929c2.772,0,5.173,0.365,7.198,1.096c2.025,0.729,4.078,1.935,6.158,3.612
		c0.438,0.328,0.729,0.666,0.876,1.013c0.146,0.348,0.219,0.758,0.219,1.231c0,0.73-0.265,1.333-0.793,1.807
		c-0.53,0.475-1.159,0.712-1.889,0.712c-0.657,0-1.278-0.237-1.861-0.712c-1.497-1.276-2.956-2.198-4.38-2.765
		c-1.423-0.565-3.267-0.848-5.528-0.848c-2.847,0-5.466,0.748-7.855,2.244c-2.391,1.497-4.289,3.53-5.693,6.104
		c-1.405,2.573-2.107,5.374-2.107,8.402c0,3.066,0.702,5.877,2.107,8.431c1.404,2.555,3.303,4.58,5.693,6.076
		c2.39,1.497,5.009,2.244,7.855,2.244c3.065,0,6.003-0.911,8.813-2.736v-9.744h-7.555c-0.84,0-1.524-0.237-2.053-0.712
		c-0.529-0.474-0.794-1.076-0.794-1.807c0-0.729,0.265-1.332,0.794-1.807c0.528-0.474,1.213-0.711,2.053-0.711h10.236
		C823.578,241.682,824.244,241.946,824.773,242.475z"/>
	<linearGradient id="SVGID_19_" gradientUnits="userSpaceOnUse" x1="837.377" y1="292.1411" x2="839.377" y2="232.1409">
		<stop  offset="0.15" style="stop-color:#00A1E0"/>
		<stop  offset="0.855" style="stop-color:#018ED6"/>
	</linearGradient>
	<path display="inline" fill="url(#SVGID_19_)" d="M836.98,262.565c-1.259-0.857-2.236-2.062-2.929-3.613
		c-0.693-1.551-1.04-3.293-1.04-5.228v-29.889c0-0.803,0.255-1.46,0.767-1.971c0.511-0.511,1.167-0.767,1.971-0.767
		c0.802,0,1.459,0.256,1.971,0.767c0.51,0.511,0.766,1.168,0.766,1.971v29.889c0,1.351,0.255,2.463,0.767,3.339
		c0.511,0.876,1.168,1.313,1.971,1.313h1.369c0.729,0,1.322,0.256,1.778,0.767c0.456,0.512,0.685,1.169,0.685,1.971
		c0,0.804-0.348,1.46-1.04,1.971c-0.693,0.512-1.588,0.767-2.683,0.767h-0.109C839.653,263.852,838.239,263.423,836.98,262.565z"/>
	<linearGradient id="SVGID_20_" gradientUnits="userSpaceOnUse" x1="860.9678" y1="292.9268" x2="862.9678" y2="232.9276">
		<stop  offset="0.15" style="stop-color:#00A1E0"/>
		<stop  offset="0.855" style="stop-color:#018ED6"/>
	</linearGradient>
	<path display="inline" fill="url(#SVGID_20_)" d="M854.635,262.127c-2.3-1.295-4.088-3.093-5.365-5.392s-1.916-4.908-1.916-7.828
		c0-2.956,0.639-5.584,1.916-7.883s3.065-4.096,5.365-5.392c2.299-1.295,4.907-1.943,7.828-1.943c2.882,0,5.465,0.648,7.745,1.943
		c2.28,1.296,4.069,3.093,5.365,5.392c1.295,2.299,1.943,4.927,1.943,7.883c0,2.92-0.639,5.529-1.916,7.828
		c-1.278,2.299-3.057,4.097-5.338,5.392c-2.28,1.296-4.881,1.943-7.8,1.943C859.542,264.07,856.934,263.423,854.635,262.127z
		 M867.472,257.83c1.478-0.876,2.627-2.089,3.448-3.641c0.821-1.551,1.231-3.312,1.231-5.282s-0.41-3.74-1.231-5.31
		s-1.971-2.792-3.448-3.668c-1.479-0.876-3.147-1.313-5.009-1.313s-3.531,0.438-5.009,1.313c-1.479,0.876-2.638,2.099-3.477,3.668
		c-0.84,1.569-1.259,3.339-1.259,5.31s0.419,3.731,1.259,5.282c0.839,1.552,1.998,2.765,3.477,3.641
		c1.478,0.876,3.147,1.313,5.009,1.313S865.993,258.706,867.472,257.83z"/>
	<linearGradient id="SVGID_21_" gradientUnits="userSpaceOnUse" x1="898.9932" y1="294.1948" x2="900.9932" y2="234.1949">
		<stop  offset="0.15" style="stop-color:#00A1E0"/>
		<stop  offset="0.855" style="stop-color:#018ED6"/>
	</linearGradient>
	<path display="inline" fill="url(#SVGID_21_)" d="M909.128,235.66c2.136,1.313,3.813,3.129,5.036,5.446
		c1.223,2.318,1.834,4.899,1.834,7.746s-0.656,5.429-1.971,7.746c-1.313,2.317-3.129,4.142-5.446,5.474
		c-2.318,1.333-4.882,1.998-7.691,1.998c-2.811,0-5.356-0.665-7.637-1.998c-2.28-1.332-4.087-3.156-5.419-5.474
		c-1.333-2.317-1.998-4.899-1.998-7.746v-24.962c0-0.839,0.265-1.515,0.794-2.025c0.528-0.511,1.194-0.767,1.998-0.767
		c0.839,0,1.514,0.256,2.025,0.767c0.511,0.511,0.767,1.187,0.767,2.025v14.78c1.276-1.569,2.827-2.792,4.652-3.668
		c1.824-0.876,3.795-1.313,5.912-1.313C904.612,233.689,906.993,234.346,909.128,235.66z M905.844,257.803
		c1.479-0.894,2.646-2.126,3.504-3.695c0.856-1.568,1.286-3.32,1.286-5.255c0-1.934-0.43-3.677-1.286-5.228
		c-0.858-1.551-2.025-2.773-3.504-3.668c-1.478-0.894-3.13-1.341-4.954-1.341c-1.825,0-3.476,0.447-4.954,1.341
		c-1.478,0.895-2.637,2.117-3.476,3.668c-0.84,1.551-1.26,3.294-1.26,5.228c0,1.935,0.42,3.687,1.26,5.255
		c0.839,1.569,1.998,2.802,3.476,3.695c1.479,0.895,3.129,1.341,4.954,1.341C902.714,259.144,904.366,258.697,905.844,257.803z"/>
	<linearGradient id="SVGID_22_" gradientUnits="userSpaceOnUse" x1="936.5156" y1="295.4458" x2="938.5157" y2="235.4458">
		<stop  offset="0.15" style="stop-color:#00A1E0"/>
		<stop  offset="0.855" style="stop-color:#018ED6"/>
	</linearGradient>
	<path display="inline" fill="url(#SVGID_22_)" d="M945.53,235.688c2.28,1.332,4.087,3.156,5.42,5.474
		c1.331,2.318,1.998,4.899,1.998,7.746v12.207c0,0.804-0.266,1.47-0.794,1.998c-0.529,0.529-1.195,0.794-1.998,0.794
		s-1.47-0.265-1.998-0.794c-0.529-0.528-0.794-1.194-0.794-1.998v-2.025c-1.277,1.569-2.828,2.792-4.653,3.668
		s-3.796,1.313-5.911,1.313c-2.628,0-5.01-0.656-7.145-1.971c-2.135-1.313-3.813-3.129-5.036-5.446s-1.834-4.899-1.834-7.746
		s0.657-5.428,1.971-7.746c1.314-2.317,3.129-4.142,5.447-5.474c2.317-1.332,4.881-1.998,7.691-1.998
		C940.704,233.689,943.249,234.355,945.53,235.688z M942.849,257.803c1.478-0.894,2.636-2.116,3.476-3.668
		c0.839-1.551,1.259-3.293,1.259-5.228c0-1.934-0.42-3.686-1.259-5.255c-0.84-1.569-1.998-2.801-3.476-3.695
		c-1.479-0.894-3.13-1.341-4.954-1.341c-1.825,0-3.477,0.447-4.954,1.341c-1.479,0.895-2.646,2.126-3.504,3.695
		s-1.286,3.321-1.286,5.255c0,1.935,0.429,3.677,1.286,5.228c0.857,1.552,2.025,2.774,3.504,3.668
		c1.478,0.895,3.129,1.341,4.954,1.341C939.719,259.144,941.37,258.697,942.849,257.803z"/>
	<linearGradient id="SVGID_23_" gradientUnits="userSpaceOnUse" x1="964.3984" y1="296.375" x2="966.3985" y2="236.3748">
		<stop  offset="0.15" style="stop-color:#00A1E0"/>
		<stop  offset="0.855" style="stop-color:#018ED6"/>
	</linearGradient>
	<path display="inline" fill="url(#SVGID_23_)" d="M964.143,262.565c-1.259-0.857-2.236-2.062-2.929-3.613
		c-0.693-1.551-1.04-3.293-1.04-5.228v-29.889c0-0.803,0.255-1.46,0.767-1.971c0.511-0.511,1.167-0.767,1.971-0.767
		c0.802,0,1.459,0.256,1.971,0.767c0.51,0.511,0.766,1.168,0.766,1.971v29.889c0,1.351,0.255,2.463,0.767,3.339
		c0.511,0.876,1.168,1.313,1.971,1.313h1.369c0.729,0,1.322,0.256,1.778,0.767c0.456,0.512,0.685,1.169,0.685,1.971
		c0,0.804-0.348,1.46-1.04,1.971c-0.693,0.512-1.588,0.767-2.683,0.767h-0.109C966.815,263.852,965.401,263.423,964.143,262.565z"/>
	<linearGradient id="SVGID_24_" gradientUnits="userSpaceOnUse" x1="1006.584" y1="297.7813" x2="1008.584" y2="237.7814">
		<stop  offset="0.15" style="stop-color:#00A1E0"/>
		<stop  offset="0.855" style="stop-color:#018ED6"/>
	</linearGradient>
	<path display="inline" fill="url(#SVGID_24_)" d="M995.07,263.03c-0.529-0.547-0.793-1.222-0.793-2.025v-37.06
		c0-0.803,0.273-1.479,0.82-2.025c0.548-0.548,1.205-0.821,1.971-0.821c0.803,0,1.479,0.273,2.025,0.821
		c0.548,0.547,0.821,1.223,0.821,2.025v34.213h19.816c0.803,0,1.479,0.274,2.025,0.821c0.548,0.548,0.821,1.224,0.821,2.025
		c0,0.804-0.273,1.479-0.821,2.025c-0.547,0.548-1.223,0.821-2.025,0.821h-22.663C996.266,263.852,995.6,263.578,995.07,263.03z"/>
	<linearGradient id="SVGID_25_" gradientUnits="userSpaceOnUse" x1="1029.958" y1="298.5601" x2="1031.958" y2="238.5607">
		<stop  offset="0.15" style="stop-color:#00A1E0"/>
		<stop  offset="0.855" style="stop-color:#018ED6"/>
	</linearGradient>
	<path display="inline" fill="url(#SVGID_25_)" d="M1029.667,227.969c-0.712-0.712-1.067-1.561-1.067-2.546s0.355-1.834,1.067-2.545
		c0.711-0.712,1.56-1.067,2.545-1.067s1.834,0.355,2.546,1.067c0.712,0.711,1.067,1.56,1.067,2.545s-0.355,1.834-1.067,2.546
		s-1.561,1.067-2.546,1.067S1030.378,228.681,1029.667,227.969z M1030.214,263.058c-0.529-0.528-0.793-1.194-0.793-1.998V236.7
		c0-0.84,0.264-1.515,0.793-2.025s1.195-0.767,1.998-0.767c0.84,0,1.515,0.256,2.025,0.767s0.767,1.186,0.767,2.025v24.359
		c0,0.804-0.256,1.47-0.767,1.998c-0.511,0.529-1.186,0.794-2.025,0.794C1031.409,263.852,1030.743,263.587,1030.214,263.058z"/>
	<linearGradient id="SVGID_26_" gradientUnits="userSpaceOnUse" x1="1064.7598" y1="299.7212" x2="1066.7599" y2="239.7202">
		<stop  offset="0.15" style="stop-color:#00A1E0"/>
		<stop  offset="0.855" style="stop-color:#018ED6"/>
	</linearGradient>
	<path display="inline" fill="url(#SVGID_26_)" d="M1084.571,236.755c1.952,2.08,2.929,4.981,2.929,8.703v15.656
		c0,0.804-0.256,1.47-0.766,1.998c-0.512,0.529-1.187,0.794-2.025,0.794c-0.804,0-1.47-0.265-1.998-0.794
		c-0.53-0.528-0.794-1.194-0.794-1.998v-15.656c0-2.226-0.557-3.913-1.67-5.063c-1.113-1.149-2.601-1.724-4.461-1.724
		c-1.898,0-3.459,0.656-4.681,1.971c-1.224,1.313-1.834,2.992-1.834,5.036v15.437c0,0.804-0.256,1.47-0.767,1.998
		c-0.512,0.529-1.187,0.794-2.025,0.794c-0.803,0-1.47-0.265-1.998-0.794c-0.529-0.528-0.794-1.194-0.794-1.998v-15.656
		c0-2.226-0.557-3.913-1.669-5.063c-1.114-1.149-2.601-1.724-4.462-1.724c-1.935,0-3.513,0.656-4.735,1.971
		c-1.223,1.313-1.833,2.992-1.833,5.036v15.437c0,0.804-0.256,1.47-0.767,1.998c-0.512,0.529-1.187,0.794-2.025,0.794
		c-0.804,0-1.47-0.265-1.998-0.794c-0.529-0.528-0.794-1.194-0.794-1.998v-24.359c0-0.84,0.265-1.515,0.794-2.025
		c0.528-0.511,1.194-0.767,1.998-0.767c0.802,0,1.459,0.246,1.971,0.739c0.511,0.492,0.784,1.141,0.821,1.943
		c0.948-0.949,2.08-1.688,3.394-2.218c1.313-0.528,2.737-0.793,4.27-0.793c1.861,0,3.531,0.374,5.009,1.122
		c1.479,0.748,2.691,1.815,3.641,3.202c1.095-1.35,2.463-2.408,4.105-3.175s3.467-1.149,5.475-1.149
		C1080.056,233.635,1082.619,234.675,1084.571,236.755z"/>
	<linearGradient id="SVGID_27_" gradientUnits="userSpaceOnUse" x1="1097.7598" y1="300.8203" x2="1099.7598" y2="240.8202">
		<stop  offset="0.15" style="stop-color:#00A1E0"/>
		<stop  offset="0.855" style="stop-color:#018ED6"/>
	</linearGradient>
	<path display="inline" fill="url(#SVGID_27_)" d="M1097.545,227.969c-0.712-0.712-1.067-1.561-1.067-2.546s0.355-1.834,1.067-2.545
		c0.711-0.712,1.56-1.067,2.545-1.067s1.834,0.355,2.546,1.067c0.712,0.711,1.067,1.56,1.067,2.545s-0.355,1.834-1.067,2.546
		s-1.561,1.067-2.546,1.067S1098.256,228.681,1097.545,227.969z M1098.092,263.058c-0.529-0.528-0.793-1.194-0.793-1.998V236.7
		c0-0.84,0.264-1.515,0.793-2.025s1.195-0.767,1.998-0.767c0.84,0,1.515,0.256,2.025,0.767s0.767,1.186,0.767,2.025v24.359
		c0,0.804-0.256,1.47-0.767,1.998c-0.511,0.529-1.186,0.794-2.025,0.794C1099.287,263.852,1098.621,263.587,1098.092,263.058z"/>
	<linearGradient id="SVGID_28_" gradientUnits="userSpaceOnUse" x1="1117.1807" y1="301.4678" x2="1119.1807" y2="241.4678">
		<stop  offset="0.15" style="stop-color:#00A1E0"/>
		<stop  offset="0.855" style="stop-color:#018ED6"/>
	</linearGradient>
	<path display="inline" fill="url(#SVGID_28_)" d="M1127.706,259.144c0.456,0.512,0.685,1.169,0.685,1.971
		c0,0.804-0.301,1.46-0.903,1.971c-0.602,0.512-1.378,0.767-2.326,0.767h-0.985c-1.788,0-3.422-0.465-4.899-1.396
		s-2.637-2.198-3.477-3.805c-0.84-1.605-1.259-3.412-1.259-5.42v-13.521h-2.518c-0.767,0-1.388-0.22-1.861-0.657
		c-0.475-0.438-0.712-0.985-0.712-1.643c0-0.729,0.237-1.313,0.712-1.751c0.474-0.438,1.095-0.657,1.861-0.657h2.518v-7.883
		c0-0.803,0.255-1.459,0.767-1.971c0.511-0.511,1.168-0.767,1.971-0.767s1.459,0.256,1.971,0.767
		c0.511,0.512,0.767,1.168,0.767,1.971v7.883h4.652c0.767,0,1.387,0.219,1.861,0.657c0.475,0.438,0.712,1.021,0.712,1.751
		c0,0.657-0.237,1.205-0.712,1.643s-1.095,0.657-1.861,0.657h-4.652v13.521c0,1.46,0.401,2.683,1.204,3.668s1.788,1.478,2.956,1.478
		h1.861C1126.693,258.377,1127.25,258.633,1127.706,259.144z"/>
	<linearGradient id="SVGID_29_" gradientUnits="userSpaceOnUse" x1="1146.1084" y1="302.4326" x2="1148.1085" y2="242.4316">
		<stop  offset="0.15" style="stop-color:#00A1E0"/>
		<stop  offset="0.855" style="stop-color:#018ED6"/>
	</linearGradient>
	<path display="inline" fill="url(#SVGID_29_)" d="M1161.398,250.139c-0.475,0.457-1.076,0.685-1.807,0.685h-20.801
		c0.4,2.555,1.56,4.617,3.476,6.186c1.916,1.569,4.261,2.354,7.034,2.354c1.095,0,2.235-0.199,3.422-0.602
		c1.186-0.401,2.162-0.894,2.929-1.479c0.51-0.4,1.112-0.602,1.806-0.602s1.24,0.183,1.643,0.547
		c0.657,0.548,0.985,1.169,0.985,1.861c0,0.657-0.293,1.204-0.876,1.643c-1.241,0.985-2.783,1.788-4.626,2.408
		c-1.843,0.621-3.604,0.931-5.282,0.931c-2.993,0-5.675-0.647-8.047-1.943c-2.373-1.295-4.225-3.093-5.557-5.392
		s-1.998-4.908-1.998-7.828c0-2.919,0.63-5.537,1.889-7.855c1.26-2.317,3.011-4.123,5.256-5.419
		c2.244-1.295,4.789-1.943,7.636-1.943c2.811,0,5.236,0.621,7.281,1.861c2.043,1.24,3.612,2.975,4.707,5.2
		c1.095,2.227,1.643,4.781,1.643,7.663C1162.11,249.108,1161.873,249.683,1161.398,250.139z M1141.993,240.587
		c-1.661,1.46-2.71,3.412-3.147,5.856h18.229c-0.328-2.444-1.241-4.396-2.737-5.856c-1.497-1.46-3.448-2.19-5.857-2.19
		C1145.815,238.396,1143.653,239.127,1141.993,240.587z"/>
	<linearGradient id="SVGID_30_" gradientUnits="userSpaceOnUse" x1="1179.8564" y1="303.5576" x2="1181.8566" y2="243.5568">
		<stop  offset="0.15" style="stop-color:#00A1E0"/>
		<stop  offset="0.855" style="stop-color:#018ED6"/>
	</linearGradient>
	<path display="inline" fill="url(#SVGID_30_)" d="M1195.995,221.865c0.511,0.511,0.767,1.187,0.767,2.025v24.962
		c0,2.847-0.667,5.429-1.998,7.746c-1.333,2.317-3.14,4.142-5.42,5.474c-2.281,1.333-4.826,1.998-7.636,1.998
		c-2.811,0-5.374-0.665-7.691-1.998c-2.318-1.332-4.133-3.156-5.447-5.474c-1.313-2.317-1.971-4.899-1.971-7.746
		s0.611-5.428,1.834-7.746c1.223-2.317,2.901-4.133,5.036-5.446c2.135-1.314,4.517-1.971,7.145-1.971
		c2.115,0,4.086,0.438,5.911,1.313s3.376,2.099,4.653,3.668v-14.78c0-0.839,0.265-1.515,0.794-2.025
		c0.528-0.511,1.195-0.767,1.998-0.767C1194.809,221.099,1195.483,221.354,1195.995,221.865z M1186.662,257.803
		c1.478-0.894,2.636-2.126,3.476-3.695c0.839-1.568,1.259-3.32,1.259-5.255c0-1.934-0.42-3.677-1.259-5.228
		c-0.84-1.551-1.998-2.773-3.476-3.668c-1.479-0.894-3.13-1.341-4.954-1.341c-1.825,0-3.477,0.447-4.954,1.341
		c-1.479,0.895-2.646,2.117-3.504,3.668s-1.286,3.294-1.286,5.228c0,1.935,0.429,3.687,1.286,5.255
		c0.857,1.569,2.025,2.802,3.504,3.695c1.478,0.895,3.129,1.341,4.954,1.341C1183.532,259.144,1185.184,258.697,1186.662,257.803z"
		/>
</g>
<text transform="matrix(1 0 0 1 181.5498 453.8564)" fill="#009CC8" font-family="'SofiaPro-Bold'" font-size="94.2122">Bytes Intelligence</text>
<text transform="matrix(1 0 0 1 187.1064 521.6055)" font-family="'SofiaPro'" font-size="44.1453">Global Limited</text>
<rect x="495.826" y="509.605" fill="#D60C11" width="449.675" height="3.584"/>
<rect x="495.826" y="516.271" fill="#D60C11" width="448.675" height="5.334"/>
</svg>
